# xmcd
#
# Track frame offsets: 
#        150
#        14097
#        27150
#
# Disc length: 545 seconds
#
# Revision: 0
# Processed by: cddbd v1.5.2PL0 Copyright (c) Steve Scherf et al.
# Submitted via: ExactAudioCopy v1.0b6
#
DISCID=1d021f03
DTITLE=Joe Hodgkins - Bitte, danke, nix versteh'n
DYEAR=1993
DGENRE=Country
TTITLE0=Bitte, danke, nix versteh'n
TTITLE1=Das Leben hat Vorjahrt
TTITLE2=Bitte, danke, nix versteh'n (Karaoke-Version)
EXTD=
EXTT0=
EXTT1=
EXTT2=
PLAYORDER=
